<svg xmlns="http://www.w3.org/2000/svg"><symbol id="space-bubbles" viewBox="0 0 256 256"><path d="M128 0l110.9 64v128L128 256 17.1 192V64L128 0z"/><path fill="#fff" d="M65.4 179.9l-4.9-6.9a2.2 2.2 0 0 1 .2-2.5l17.5-20.6h-8.6a2 2 0 0 1-2.1-2.1v-15.2a2 2 0 0 1 2.1-2.1h12.1a61.2 61.2 0 0 1-2.3-16 49.9 49.9 0 0 1 49.9-49.6c27.1 0 49.6 22.5 49.6 49.6a53.9 53.9 0 0 1-2.3 16h12.2a2.1 2.1 0 0 1 2.1 2.1v15.2a2.1 2.1 0 0 1-2.1 2.1H178l17.3 20.6a2.3 2.3 0 0 1 0 2.5l-4.9 6.9a2.1 2.1 0 0 1-2.7.7l-10.1-5.3H78.2l-10.1 5.3a2.2 2.2 0 0 1-2.7-.7zm31.9-30H83.4l-18.5 21.8 3 4.2 35.5-18.7zm-25.6-15.2v11h114.9v-11zm14.5-4.2h85.9a50.1 50.1 0 0 0 2.6-16 45.5 45.5 0 0 0-45.4-45.4c-25.1 0-45.7 20.4-45.7 45.4 0 5.5.5 11.2 2.6 16zm20.1 30.1l-19.9 10.5H115zm-3.5-10.7l17.6 21.2h15.2l17.6-21.2zm46.8 10.7l-8.6 10.5h28.6zm23-10.7h-13.9l-6.3 7.3 35.7 18.7 3-4z"/></symbol><symbol id="super-domes" viewBox="0 0 256 256"><path d="M124-.2l111 64.1v128.2l-111 64.1-111-64.1V63.9L124-.2z"/><path fill="#fff" d="M63.2 175.4a2 2 0 0 1-2.1-2.1v-25.5H33.3a2.3 2.3 0 0 1-2.1-2.1 2.2 2.2 0 0 1 2.1-2.1h15.8v-13.7a1.9 1.9 0 0 1 2.1-2.1h8.2a66.6 66.6 0 0 1 64.4-51.2c.2-.2.4-.2.8 0a66.4 66.4 0 0 1 64 51.2h8.2a1.9 1.9 0 0 1 2.1 2.1v13.7h15.8a2.2 2.2 0 0 1 2.1 2.1 2.3 2.3 0 0 1-2.1 2.1h-27.8v25.5a2 2 0 0 1-2.1 2.1zM53.3 132v11.6h141.4V132zm66.5-50.9c-27 1.6-49.5 21.2-56 46.7h22.5zm-54.5 66.7v23.3h56.6v-23.3zm56.6-62.5l-30.3 42.5h30.3zm4.2-4.5v47h58.1a62.7 62.7 0 0 0-58.1-47zm0 67v23.3h9.5v-23.3zm13.7 0v23.3h42.9v-23.3z"/></symbol><symbol id="mecha-stilts" viewBox="0 0 256 256"><path d="M123 0l110.9 64v128L123 256 12.1 192V64L123 0z"/><path fill="#fff" d="M58.7 175.3a2.3 2.3 0 0 1-2.1-2.1 2.2 2.2 0 0 1 2.1-2.1h10.5v-13.3H58.7a1.9 1.9 0 0 1-2.1-2.1v-41.4a2 2 0 0 1 2.1-2.1h13.8C73.6 82.4 95.9 66 123 66s49.4 16.4 50.4 46.2h13.9a2 2 0 0 1 2.1 2.1v41.4a1.9 1.9 0 0 1-2.1 2.1h-10.5v13.3h10.5a2.2 2.2 0 0 1 2.1 2.1 2.3 2.3 0 0 1-2.1 2.1zm2.1-58.9v37.2h124.4v-37.2zm12.6 41.4v13.3h13.4v-13.3zm3.3-45.6h92.5c-1-27.1-21.6-42-46.2-42s-45.2 14.9-46.3 42zM91 157.8v13.3h21.1v-13.3zm25.3 0v13.3h13.4v-13.3zm56.9-14.2h-51.3a2.2 2.2 0 0 1 0-4.3h51.3a2.2 2.2 0 0 1 0 4.3zm-39.3 14.2v13.3h21v-13.3zm25.3 0v13.3h13.4v-13.3z"/></symbol></svg>